<svg xmlns="http://www.w3.org/2000/svg" xmlns:xlink="http://www.w3.org/1999/xlink" width="500" zoomAndPan="magnify" viewBox="0 0 375 374.999991" height="500" preserveAspectRatio="xMidYMid meet" version="1.0"><defs><g/><clipPath id="ed640ebe4f"><path d="M 124.453125 97.191406 L 250.453125 97.191406 L 250.453125 245.691406 L 124.453125 245.691406 Z M 124.453125 97.191406 " clip-rule="nonzero"/></clipPath><clipPath id="413c96aeab"><path d="M 169.449219 97.195312 L 205.539062 97.195312 C 217.472656 97.195312 228.917969 101.933594 237.355469 110.371094 C 245.792969 118.8125 250.535156 130.257812 250.535156 142.191406 L 250.535156 200.800781 C 250.535156 212.734375 245.792969 224.179688 237.355469 232.617188 C 228.917969 241.058594 217.472656 245.796875 205.539062 245.796875 L 169.449219 245.796875 C 157.515625 245.796875 146.070312 241.058594 137.632812 232.617188 C 129.195312 224.179688 124.453125 212.734375 124.453125 200.800781 L 124.453125 142.191406 C 124.453125 130.257812 129.195312 118.8125 137.632812 110.371094 C 146.070312 101.933594 157.515625 97.195312 169.449219 97.195312 Z M 169.449219 97.195312 " clip-rule="nonzero"/></clipPath><clipPath id="98a7631bd7"><path d="M 146.3125 119.84375 L 228.6875 119.84375 L 228.6875 223.460938 L 146.3125 223.460938 Z M 146.3125 119.84375 " clip-rule="nonzero"/></clipPath><clipPath id="f03f28e2bc"><path d="M 170.3125 119.84375 L 204.6875 119.84375 C 217.945312 119.84375 228.6875 130.589844 228.6875 143.84375 L 228.6875 199.160156 C 228.6875 212.414062 217.945312 223.160156 204.6875 223.160156 L 170.3125 223.160156 C 157.054688 223.160156 146.3125 212.414062 146.3125 199.160156 L 146.3125 143.84375 C 146.3125 130.589844 157.054688 119.84375 170.3125 119.84375 Z M 170.3125 119.84375 " clip-rule="nonzero"/></clipPath><clipPath id="779b5b7e01"><path d="M 0.3125 0.84375 L 82.6875 0.84375 L 82.6875 104.199219 L 0.3125 104.199219 Z M 0.3125 0.84375 " clip-rule="nonzero"/></clipPath><clipPath id="fcdd22edd2"><path d="M 24.3125 0.84375 L 58.6875 0.84375 C 71.945312 0.84375 82.6875 11.589844 82.6875 24.84375 L 82.6875 80.160156 C 82.6875 93.414062 71.945312 104.160156 58.6875 104.160156 L 24.3125 104.160156 C 11.054688 104.160156 0.3125 93.414062 0.3125 80.160156 L 0.3125 24.84375 C 0.3125 11.589844 11.054688 0.84375 24.3125 0.84375 Z M 24.3125 0.84375 " clip-rule="nonzero"/></clipPath><clipPath id="8b0e4375c3"><rect x="0" width="83" y="0" height="105"/></clipPath><clipPath id="960a0220d3"><path d="M 163.222656 64.171875 L 211.78125 64.171875 L 211.78125 84.785156 L 163.222656 84.785156 Z M 163.222656 64.171875 " clip-rule="nonzero"/></clipPath><clipPath id="c857d0beb3"><path d="M 167.722656 64.171875 L 207.277344 64.171875 C 208.46875 64.171875 209.617188 64.644531 210.460938 65.488281 C 211.304688 66.332031 211.777344 67.476562 211.777344 68.671875 L 211.777344 80.285156 C 211.777344 81.480469 211.304688 82.625 210.460938 83.46875 C 209.617188 84.3125 208.46875 84.785156 207.277344 84.785156 L 167.722656 84.785156 C 166.527344 84.785156 165.382812 84.3125 164.539062 83.46875 C 163.695312 82.625 163.222656 81.480469 163.222656 80.285156 L 163.222656 68.671875 C 163.222656 67.476562 163.695312 66.332031 164.539062 65.488281 C 165.382812 64.644531 166.527344 64.171875 167.722656 64.171875 Z M 167.722656 64.171875 " clip-rule="nonzero"/></clipPath><clipPath id="cb92e8fec7"><path d="M 0.222656 0.171875 L 48.78125 0.171875 L 48.78125 20.785156 L 0.222656 20.785156 Z M 0.222656 0.171875 " clip-rule="nonzero"/></clipPath><clipPath id="047f6368fc"><path d="M 4.722656 0.171875 L 44.277344 0.171875 C 45.46875 0.171875 46.617188 0.644531 47.460938 1.488281 C 48.304688 2.332031 48.777344 3.476562 48.777344 4.671875 L 48.777344 16.285156 C 48.777344 17.480469 48.304688 18.625 47.460938 19.46875 C 46.617188 20.3125 45.46875 20.785156 44.277344 20.785156 L 4.722656 20.785156 C 3.527344 20.785156 2.382812 20.3125 1.539062 19.46875 C 0.695312 18.625 0.222656 17.480469 0.222656 16.285156 L 0.222656 4.671875 C 0.222656 3.476562 0.695312 2.332031 1.539062 1.488281 C 2.382812 0.644531 3.527344 0.171875 4.722656 0.171875 Z M 4.722656 0.171875 " clip-rule="nonzero"/></clipPath><clipPath id="43c52a432a"><rect x="0" width="49" y="0" height="21"/></clipPath><clipPath id="027607805e"><path d="M 176.402344 85.875 L 197.875 85.875 L 197.875 91.324219 L 176.402344 91.324219 Z M 176.402344 85.875 " clip-rule="nonzero"/></clipPath><clipPath id="2a00e6b9b4"><path d="M 179.125 85.875 L 195.140625 85.875 C 195.863281 85.875 196.554688 86.164062 197.066406 86.671875 C 197.578125 87.183594 197.863281 87.878906 197.863281 88.601562 C 197.863281 89.324219 197.578125 90.015625 197.066406 90.527344 C 196.554688 91.035156 195.863281 91.324219 195.140625 91.324219 L 179.125 91.324219 C 178.402344 91.324219 177.710938 91.035156 177.199219 90.527344 C 176.6875 90.015625 176.402344 89.324219 176.402344 88.601562 C 176.402344 87.878906 176.6875 87.183594 177.199219 86.671875 C 177.710938 86.164062 178.402344 85.875 179.125 85.875 Z M 179.125 85.875 " clip-rule="nonzero"/></clipPath><clipPath id="97d547e8f6"><path d="M 0.402344 0.875 L 21.875 0.875 L 21.875 6.324219 L 0.402344 6.324219 Z M 0.402344 0.875 " clip-rule="nonzero"/></clipPath><clipPath id="3272c938b0"><path d="M 3.125 0.875 L 19.140625 0.875 C 19.863281 0.875 20.554688 1.164062 21.066406 1.671875 C 21.578125 2.183594 21.863281 2.878906 21.863281 3.601562 C 21.863281 4.324219 21.578125 5.015625 21.066406 5.527344 C 20.554688 6.035156 19.863281 6.324219 19.140625 6.324219 L 3.125 6.324219 C 2.402344 6.324219 1.710938 6.035156 1.199219 5.527344 C 0.6875 5.015625 0.402344 4.324219 0.402344 3.601562 C 0.402344 2.878906 0.6875 2.183594 1.199219 1.671875 C 1.710938 1.164062 2.402344 0.875 3.125 0.875 Z M 3.125 0.875 " clip-rule="nonzero"/></clipPath><clipPath id="a5ef038ffb"><rect x="0" width="22" y="0" height="7"/></clipPath><clipPath id="22bd17c83a"><path d="M 172.097656 92.414062 L 202.917969 92.414062 L 202.917969 97.191406 L 172.097656 97.191406 Z M 172.097656 92.414062 " clip-rule="nonzero"/></clipPath><clipPath id="a9f69d86de"><path d="M 174.488281 92.414062 L 200.511719 92.414062 C 201.832031 92.414062 202.902344 93.484375 202.902344 94.804688 C 202.902344 96.121094 201.832031 97.191406 200.511719 97.191406 L 174.488281 97.191406 C 173.167969 97.191406 172.097656 96.121094 172.097656 94.804688 C 172.097656 93.484375 173.167969 92.414062 174.488281 92.414062 Z M 174.488281 92.414062 " clip-rule="nonzero"/></clipPath><clipPath id="20f2e45054"><path d="M 0.0976562 0.414062 L 30.917969 0.414062 L 30.917969 5.191406 L 0.0976562 5.191406 Z M 0.0976562 0.414062 " clip-rule="nonzero"/></clipPath><clipPath id="4fb7d20050"><path d="M 2.488281 0.414062 L 28.511719 0.414062 C 29.832031 0.414062 30.902344 1.484375 30.902344 2.804688 C 30.902344 4.121094 29.832031 5.191406 28.511719 5.191406 L 2.488281 5.191406 C 1.167969 5.191406 0.0976562 4.121094 0.0976562 2.804688 C 0.0976562 1.484375 1.167969 0.414062 2.488281 0.414062 Z M 2.488281 0.414062 " clip-rule="nonzero"/></clipPath><clipPath id="8ff408ac29"><rect x="0" width="31" y="0" height="6"/></clipPath><clipPath id="776ea7d3d6"><path d="M 164.65625 144.480469 L 210 144.480469 L 210 198.480469 L 164.65625 198.480469 Z M 164.65625 144.480469 " clip-rule="nonzero"/></clipPath><clipPath id="9645fbe4bf"><rect x="0" width="158" y="0" height="38"/></clipPath><clipPath id="b109ac62e5"><rect x="0" width="154" y="0" height="21"/></clipPath></defs><g clip-path="url(#ed640ebe4f)"><g clip-path="url(#413c96aeab)"><path stroke-linecap="butt" transform="matrix(0.75, 0, 0, 0.75, 124.453532, 97.193461)" fill="none" stroke-linejoin="miter" d="M 59.994249 0.00246891 L 108.11404 0.00246891 C 124.025499 0.00246891 139.285915 6.320177 150.535915 17.570177 C 161.785915 28.825386 168.108832 44.085802 168.108832 59.997261 L 168.108832 138.143094 C 168.108832 154.054552 161.785915 169.314969 150.535915 180.564969 C 139.285915 191.820178 124.025499 198.137886 108.11404 198.137886 L 59.994249 198.137886 C 44.08279 198.137886 28.822374 191.820178 17.572374 180.564969 C 6.322374 169.314969 -0.000543103 154.054552 -0.000543103 138.143094 L -0.000543103 59.997261 C -0.000543103 44.085802 6.322374 28.825386 17.572374 17.570177 C 28.822374 6.320177 44.08279 0.00246891 59.994249 0.00246891 Z M 59.994249 0.00246891 " stroke="#ff914d" stroke-width="6" stroke-opacity="1" stroke-miterlimit="4"/></g></g><g clip-path="url(#98a7631bd7)"><g clip-path="url(#f03f28e2bc)"><g transform="matrix(1, 0, 0, 1, 146, 119)"><g clip-path="url(#8b0e4375c3)"><g clip-path="url(#779b5b7e01)"><g clip-path="url(#fcdd22edd2)"><path fill="#ff751f" d="M 0.3125 0.84375 L 82.6875 0.84375 L 82.6875 104.140625 L 0.3125 104.140625 Z M 0.3125 0.84375 " fill-opacity="1" fill-rule="nonzero"/></g></g></g></g></g></g><g clip-path="url(#960a0220d3)"><g clip-path="url(#c857d0beb3)"><g transform="matrix(1, 0, 0, 1, 163, 64)"><g clip-path="url(#43c52a432a)"><g clip-path="url(#cb92e8fec7)"><g clip-path="url(#047f6368fc)"><path fill="#000000" d="M 0.222656 0.171875 L 48.78125 0.171875 L 48.78125 20.785156 L 0.222656 20.785156 Z M 0.222656 0.171875 " fill-opacity="1" fill-rule="nonzero"/></g></g></g></g></g></g><g clip-path="url(#027607805e)"><g clip-path="url(#2a00e6b9b4)"><g transform="matrix(1, 0, 0, 1, 176, 85)"><g clip-path="url(#a5ef038ffb)"><g clip-path="url(#97d547e8f6)"><g clip-path="url(#3272c938b0)"><path fill="#000000" d="M 0.402344 0.875 L 21.851562 0.875 L 21.851562 6.324219 L 0.402344 6.324219 Z M 0.402344 0.875 " fill-opacity="1" fill-rule="nonzero"/></g></g></g></g></g></g><g clip-path="url(#22bd17c83a)"><g clip-path="url(#a9f69d86de)"><g transform="matrix(1, 0, 0, 1, 172, 92)"><g clip-path="url(#8ff408ac29)"><g clip-path="url(#20f2e45054)"><g clip-path="url(#4fb7d20050)"><path fill="#000000" d="M 0.0976562 0.414062 L 30.902344 0.414062 L 30.902344 5.191406 L 0.0976562 5.191406 Z M 0.0976562 0.414062 " fill-opacity="1" fill-rule="nonzero"/></g></g></g></g></g></g><g clip-path="url(#776ea7d3d6)"><path fill="#000000" d="M 197.824219 174.511719 C 194.398438 174.496094 190.976562 174.492188 187.550781 174.496094 L 187.550781 174.5 C 185.269531 174.5 182.984375 174.503906 180.699219 174.503906 C 180.394531 174.503906 180.085938 174.535156 179.792969 174.554688 L 179.792969 183.472656 C 180.257812 183.472656 180.667969 183.472656 181.082031 183.472656 C 183.238281 183.472656 185.394531 183.472656 187.550781 183.472656 C 190.847656 183.472656 194.140625 183.472656 197.4375 183.480469 C 199.421875 183.480469 200.71875 184.691406 200.722656 186.476562 C 200.726562 188.269531 199.429688 189.488281 197.460938 189.492188 C 194.15625 189.492188 190.855469 189.496094 187.550781 189.496094 C 183.410156 189.496094 179.265625 189.496094 175.125 189.492188 C 174.023438 189.492188 173.765625 189.230469 173.765625 188.125 C 173.761719 177.027344 173.757812 165.925781 173.761719 154.828125 C 173.761719 153.71875 174.003906 153.484375 175.140625 153.480469 C 177.136719 153.472656 179.128906 153.480469 181.121094 153.480469 C 183.265625 153.480469 185.410156 153.480469 187.554688 153.480469 C 187.609375 153.480469 187.664062 153.480469 187.71875 153.480469 C 187.886719 153.480469 188.054688 153.480469 188.226562 153.480469 C 191.277344 153.480469 194.328125 153.480469 197.382812 153.476562 C 198.359375 153.472656 199.234375 153.6875 199.917969 154.414062 C 200.824219 155.386719 200.996094 156.539062 200.472656 157.714844 C 199.921875 158.941406 198.875 159.496094 197.523438 159.496094 C 194.425781 159.492188 191.324219 159.496094 188.226562 159.496094 C 185.808594 159.496094 183.394531 159.496094 180.976562 159.496094 L 179.792969 159.496094 L 179.792969 168.425781 C 180.097656 168.449219 180.351562 168.484375 180.605469 168.484375 C 182.921875 168.488281 185.238281 168.488281 187.554688 168.492188 L 187.554688 168.496094 C 190.949219 168.492188 194.339844 168.484375 197.730469 168.460938 C 199.023438 168.449219 200.363281 168.21875 201.597656 167.824219 C 207.160156 166.046875 210.375 160.558594 209.71875 155.285156 C 208.9375 148.996094 204.121094 144.546875 198.121094 144.515625 C 194.824219 144.5 191.523438 144.492188 188.226562 144.488281 L 188.226562 144.480469 C 180.828125 144.476562 173.433594 144.488281 166.039062 144.492188 C 164.984375 144.492188 164.6875 144.800781 164.6875 145.882812 C 164.6875 162.949219 164.6875 180.015625 164.6875 197.082031 C 164.6875 198.195312 164.949219 198.464844 166.039062 198.46875 C 173.433594 198.472656 180.828125 198.484375 188.21875 198.484375 L 188.21875 198.480469 C 191.519531 198.476562 194.820312 198.46875 198.117188 198.453125 C 204.519531 198.421875 209.757812 193.023438 209.792969 186.632812 C 209.835938 179.929688 204.542969 174.539062 197.824219 174.511719 Z M 197.824219 174.511719 " fill-opacity="1" fill-rule="nonzero"/></g><g transform="matrix(1, 0, 0, 1, 109, 254)"><g clip-path="url(#9645fbe4bf)"><g fill="#000000" fill-opacity="1"><g transform="translate(0.998598, 32.684611)"><g><path d="M 24.78125 -18.078125 L 14.5 -9.046875 L 24.5625 0 L 20.046875 0 L 11.1875 -7.59375 L 6.8125 -7.59375 L 6.8125 0 L 3.734375 0 L 3.734375 -18.078125 L 6.8125 -18.078125 L 6.8125 -10.609375 L 11.6875 -10.609375 L 20.40625 -18.078125 Z M 24.78125 -18.078125 "/></g></g></g><g fill="#000000" fill-opacity="1"><g transform="translate(27.15467, 32.684611)"><g><path d="M 19.953125 0 L 18.171875 -3.21875 L 5.453125 -3.21875 L 3.671875 0 L 0.15625 0 L 10.0625 -18 L 10 -18.078125 L 13.625 -18.078125 L 13.59375 -18 L 23.484375 0 Z M 7.109375 -6.234375 L 16.515625 -6.234375 L 11.8125 -14.796875 Z M 7.109375 -6.234375 "/></g></g></g><g fill="#000000" fill-opacity="1"><g transform="translate(51.773946, 32.684611)"><g><path d="M 30.921875 -18.078125 L 30.921875 0 L 27.84375 0 L 27.84375 -14.3125 L 19.078125 -0.0625 L 19.109375 0 L 15.40625 0 L 15.46875 -0.0625 L 6.8125 -14.25 L 6.8125 0 L 3.734375 0 L 3.734375 -18.078125 L 8.109375 -18.078125 L 17.265625 -3.015625 L 26.546875 -18.078125 Z M 30.921875 -18.078125 "/></g></g></g><g fill="#000000" fill-opacity="1"><g transform="translate(87.421971, 32.684611)"><g><path d="M 21.125 -12.234375 C 21.125 -13.015625 20.796875 -13.628906 20.140625 -14.078125 C 19.492188 -14.535156 18.601562 -14.859375 17.46875 -15.046875 C 16.332031 -15.242188 15.050781 -15.34375 13.625 -15.34375 C 12.195312 -15.34375 10.875 -15.273438 9.65625 -15.140625 C 8.445312 -15.015625 7.46875 -14.800781 6.71875 -14.5 C 5.976562 -14.195312 5.609375 -13.804688 5.609375 -13.328125 L 5.609375 -13.046875 C 5.609375 -12.867188 5.648438 -12.675781 5.734375 -12.46875 C 5.828125 -12.269531 6.097656 -12.066406 6.546875 -11.859375 C 7.003906 -11.648438 7.75 -11.445312 8.78125 -11.25 C 9.820312 -11.0625 11.273438 -10.878906 13.140625 -10.703125 C 15.429688 -10.503906 17.382812 -10.253906 19 -9.953125 C 20.625 -9.648438 21.863281 -9.15625 22.71875 -8.46875 C 23.582031 -7.78125 24.015625 -6.753906 24.015625 -5.390625 L 24.015625 -5.09375 C 24.015625 -3.101562 23.117188 -1.707031 21.328125 -0.90625 C 19.546875 -0.101562 16.765625 0.296875 12.984375 0.296875 C 9.453125 0.296875 6.804688 -0.285156 5.046875 -1.453125 C 3.285156 -2.628906 2.40625 -4.222656 2.40625 -6.234375 L 5.484375 -6.234375 C 5.484375 -5.148438 6.09375 -4.289062 7.3125 -3.65625 C 8.539062 -3.03125 10.429688 -2.71875 12.984375 -2.71875 C 13.828125 -2.71875 14.707031 -2.734375 15.625 -2.765625 C 16.539062 -2.804688 17.394531 -2.898438 18.1875 -3.046875 C 18.976562 -3.203125 19.617188 -3.4375 20.109375 -3.75 C 20.609375 -4.0625 20.859375 -4.476562 20.859375 -5 L 20.859375 -5.359375 C 20.859375 -5.484375 20.804688 -5.632812 20.703125 -5.8125 C 20.609375 -6 20.328125 -6.203125 19.859375 -6.421875 C 19.398438 -6.640625 18.628906 -6.851562 17.546875 -7.0625 C 16.460938 -7.28125 14.929688 -7.476562 12.953125 -7.65625 C 10.546875 -7.914062 8.566406 -8.195312 7.015625 -8.5 C 5.472656 -8.800781 4.320312 -9.289062 3.5625 -9.96875 C 2.8125 -10.65625 2.4375 -11.671875 2.4375 -13.015625 L 2.4375 -13.265625 C 2.4375 -14.929688 3.335938 -16.195312 5.140625 -17.0625 C 6.953125 -17.925781 9.78125 -18.359375 13.625 -18.359375 C 15.789062 -18.359375 17.660156 -18.160156 19.234375 -17.765625 C 20.816406 -17.378906 22.039062 -16.738281 22.90625 -15.84375 C 23.769531 -14.945312 24.203125 -13.742188 24.203125 -12.234375 Z M 21.125 -12.234375 "/></g></g></g><g fill="#000000" fill-opacity="1"><g transform="translate(115.024435, 32.684611)"><g><path d="M 22.609375 -18.078125 L 25.6875 -18.078125 L 25.6875 0 L 22.609375 0 L 22.609375 -7.75 L 6.8125 -7.75 L 6.8125 0 L 3.734375 0 L 3.734375 -18.078125 L 6.8125 -18.078125 L 6.8125 -10.34375 L 22.609375 -10.34375 Z M 22.609375 -18.078125 "/></g></g></g><g fill="#000000" fill-opacity="1"><g transform="translate(145.429282, 32.684611)"><g><path d="M 3.734375 0 L 3.734375 -18.078125 L 6.8125 -18.078125 L 6.8125 0 Z M 3.734375 0 "/></g></g></g></g></g><g transform="matrix(1, 0, 0, 1, 115, 291)"><g clip-path="url(#b109ac62e5)"><g fill="#000000" fill-opacity="1"><g transform="translate(0.860993, 16.602854)"><g><path d="M 7.296875 -9.53125 C 8.296875 -9.53125 9.082031 -9.425781 9.65625 -9.21875 C 10.226562 -9.007812 10.628906 -8.703125 10.859375 -8.296875 C 11.097656 -7.898438 11.21875 -7.410156 11.21875 -6.828125 L 11.21875 -6.359375 C 11.21875 -5.691406 11.097656 -5.144531 10.859375 -4.71875 C 10.628906 -4.289062 10.226562 -3.96875 9.65625 -3.75 C 9.09375 -3.539062 8.304688 -3.4375 7.296875 -3.4375 L 2.796875 -3.4375 L 2.796875 0 L 1.96875 0 L 1.96875 -9.53125 Z M 10.359375 -6.359375 L 10.359375 -6.828125 C 10.359375 -7.515625 10.113281 -8.003906 9.625 -8.296875 C 9.144531 -8.585938 8.367188 -8.734375 7.296875 -8.734375 L 2.796875 -8.734375 L 2.796875 -4.234375 L 7.296875 -4.234375 C 8.398438 -4.234375 9.1875 -4.390625 9.65625 -4.703125 C 10.125 -5.023438 10.359375 -5.578125 10.359375 -6.359375 Z M 10.359375 -6.359375 "/></g></g></g><g fill="#000000" fill-opacity="1"><g transform="translate(21.404536, 16.602854)"><g><path d="M 11.203125 -8.796875 L 2.796875 -8.796875 L 2.796875 -5 L 10.625 -5 L 10.625 -4.265625 L 2.796875 -4.265625 L 2.796875 -0.734375 L 11.203125 -0.734375 L 11.203125 0 L 1.96875 0 L 1.96875 -9.53125 L 11.203125 -9.53125 Z M 11.203125 -8.796875 "/></g></g></g><g fill="#000000" fill-opacity="1"><g transform="translate(41.948079, 16.602854)"><g><path d="M 11.578125 -0.953125 C 11.578125 -0.785156 11.582031 -0.617188 11.59375 -0.453125 C 11.613281 -0.296875 11.632812 -0.144531 11.65625 0 L 10.75 0 C 10.726562 -0.144531 10.710938 -0.296875 10.703125 -0.453125 C 10.691406 -0.609375 10.6875 -0.753906 10.6875 -0.890625 L 10.6875 -2.46875 C 10.6875 -3.03125 10.492188 -3.4375 10.109375 -3.6875 C 9.734375 -3.945312 9.070312 -4.078125 8.125 -4.078125 L 2.828125 -4.078125 L 2.828125 0 L 1.96875 0 L 1.96875 -9.53125 L 8.125 -9.53125 C 9.34375 -9.53125 10.222656 -9.316406 10.765625 -8.890625 C 11.304688 -8.460938 11.578125 -7.859375 11.578125 -7.078125 L 11.578125 -6.703125 C 11.578125 -6.148438 11.472656 -5.691406 11.265625 -5.328125 C 11.054688 -4.972656 10.722656 -4.695312 10.265625 -4.5 C 10.722656 -4.3125 11.054688 -4.050781 11.265625 -3.71875 C 11.472656 -3.382812 11.578125 -2.96875 11.578125 -2.46875 Z M 2.828125 -4.90625 L 8.125 -4.90625 C 9.070312 -4.90625 9.738281 -5.039062 10.125 -5.3125 C 10.519531 -5.59375 10.71875 -6.054688 10.71875 -6.703125 L 10.71875 -7.078125 C 10.71875 -7.640625 10.519531 -8.054688 10.125 -8.328125 C 9.738281 -8.597656 9.070312 -8.734375 8.125 -8.734375 L 2.828125 -8.734375 Z M 2.828125 -4.90625 "/></g></g></g><g fill="#000000" fill-opacity="1"><g transform="translate(63.396273, 16.602854)"><g><path d="M 11.203125 -8.796875 L 2.796875 -8.796875 L 2.796875 -4.984375 L 9.9375 -4.984375 L 9.9375 -4.25 L 2.796875 -4.25 L 2.796875 0 L 1.96875 0 L 1.96875 -9.53125 L 11.203125 -9.53125 Z M 11.203125 -8.796875 "/></g></g></g><g fill="#000000" fill-opacity="1"><g transform="translate(83.257352, 16.602854)"><g><path d="M 7.25 0.15625 C 5.851562 0.15625 4.722656 -0.0234375 3.859375 -0.390625 C 2.992188 -0.753906 2.359375 -1.273438 1.953125 -1.953125 C 1.554688 -2.640625 1.359375 -3.457031 1.359375 -4.40625 L 1.359375 -9.53125 L 2.25 -9.53125 L 2.25 -4.40625 C 2.25 -3.175781 2.65625 -2.242188 3.46875 -1.609375 C 4.289062 -0.984375 5.550781 -0.671875 7.25 -0.671875 C 8.957031 -0.671875 10.21875 -0.984375 11.03125 -1.609375 C 11.84375 -2.242188 12.25 -3.175781 12.25 -4.40625 L 12.25 -9.53125 L 13.140625 -9.53125 L 13.140625 -4.484375 C 13.140625 -3.523438 12.9375 -2.695312 12.53125 -2 C 12.132812 -1.3125 11.503906 -0.78125 10.640625 -0.40625 C 9.773438 -0.03125 8.644531 0.15625 7.25 0.15625 Z M 7.25 0.15625 "/></g></g></g><g fill="#000000" fill-opacity="1"><g transform="translate(106.149826, 16.602854)"><g><path d="M 15.453125 -9.53125 L 15.453125 0 L 14.625 0 L 14.625 -8.40625 L 9.1875 -0.015625 L 9.1875 0 L 8.21875 0 L 8.234375 -0.015625 L 2.796875 -8.40625 L 2.796875 0 L 1.96875 0 L 1.96875 -9.53125 L 3.03125 -9.53125 L 8.71875 -0.75 L 14.390625 -9.53125 Z M 15.453125 -9.53125 "/></g></g></g><g fill="#000000" fill-opacity="1"><g transform="translate(131.930841, 16.602854)"><g><path d="M 11.203125 -8.796875 L 2.796875 -8.796875 L 2.796875 -5 L 10.625 -5 L 10.625 -4.265625 L 2.796875 -4.265625 L 2.796875 -0.734375 L 11.203125 -0.734375 L 11.203125 0 L 1.96875 0 L 1.96875 -9.53125 L 11.203125 -9.53125 Z M 11.203125 -8.796875 "/></g></g></g></g></g></svg>