<svg xmlns="http://www.w3.org/2000/svg" xmlns:xlink="http://www.w3.org/1999/xlink" width="500" zoomAndPan="magnify" viewBox="0 0 375 374.999991" height="500" preserveAspectRatio="xMidYMid meet" version="1.0"><defs><filter x="0%" y="0%" width="100%" height="100%" id="ff0a709601"><feColorMatrix values="0 0 0 0 1 0 0 0 0 1 0 0 0 0 1 0 0 0 1 0" color-interpolation-filters="sRGB"/></filter><g/><clipPath id="54465abbcb"><path d="M 124.453125 80.808594 L 250.453125 80.808594 L 250.453125 229.308594 L 124.453125 229.308594 Z M 124.453125 80.808594 " clip-rule="nonzero"/></clipPath><clipPath id="c45d5ca400"><path d="M 169.449219 80.808594 L 205.539062 80.808594 C 217.472656 80.808594 228.917969 85.550781 237.355469 93.988281 C 245.792969 102.425781 250.535156 113.871094 250.535156 125.804688 L 250.535156 184.417969 C 250.535156 196.351562 245.792969 207.796875 237.355469 216.234375 C 228.917969 224.671875 217.472656 229.414062 205.539062 229.414062 L 169.449219 229.414062 C 157.515625 229.414062 146.070312 224.671875 137.632812 216.234375 C 129.195312 207.796875 124.453125 196.351562 124.453125 184.417969 L 124.453125 125.804688 C 124.453125 113.871094 129.195312 102.425781 137.632812 93.988281 C 146.070312 85.550781 157.515625 80.808594 169.449219 80.808594 Z M 169.449219 80.808594 " clip-rule="nonzero"/></clipPath><clipPath id="6fe02c2199"><path d="M 146.3125 103.460938 L 228.6875 103.460938 L 228.6875 207 L 146.3125 207 Z M 146.3125 103.460938 " clip-rule="nonzero"/></clipPath><clipPath id="7922bb246d"><path d="M 170.3125 103.460938 L 204.6875 103.460938 C 217.945312 103.460938 228.6875 114.203125 228.6875 127.460938 L 228.6875 182.773438 C 228.6875 196.027344 217.945312 206.773438 204.6875 206.773438 L 170.3125 206.773438 C 157.054688 206.773438 146.3125 196.027344 146.3125 182.773438 L 146.3125 127.460938 C 146.3125 114.203125 157.054688 103.460938 170.3125 103.460938 Z M 170.3125 103.460938 " clip-rule="nonzero"/></clipPath><clipPath id="e10a709d5c"><path d="M 0.3125 0.460938 L 82.6875 0.460938 L 82.6875 103.878906 L 0.3125 103.878906 Z M 0.3125 0.460938 " clip-rule="nonzero"/></clipPath><clipPath id="633caa09f5"><path d="M 24.3125 0.460938 L 58.6875 0.460938 C 71.945312 0.460938 82.6875 11.203125 82.6875 24.460938 L 82.6875 79.773438 C 82.6875 93.027344 71.945312 103.773438 58.6875 103.773438 L 24.3125 103.773438 C 11.054688 103.773438 0.3125 93.027344 0.3125 79.773438 L 0.3125 24.460938 C 0.3125 11.203125 11.054688 0.460938 24.3125 0.460938 Z M 24.3125 0.460938 " clip-rule="nonzero"/></clipPath><clipPath id="d2eee2dc24"><rect x="0" width="83" y="0" height="104"/></clipPath><clipPath id="a9c1292f7c"><path d="M 163.222656 47.785156 L 211.78125 47.785156 L 211.78125 68.402344 L 163.222656 68.402344 Z M 163.222656 47.785156 " clip-rule="nonzero"/></clipPath><clipPath id="982c0303c0"><path d="M 167.722656 47.785156 L 207.277344 47.785156 C 208.46875 47.785156 209.617188 48.261719 210.460938 49.105469 C 211.304688 49.949219 211.777344 51.09375 211.777344 52.285156 L 211.777344 63.902344 C 211.777344 65.09375 211.304688 66.238281 210.460938 67.082031 C 209.617188 67.925781 208.46875 68.402344 207.277344 68.402344 L 167.722656 68.402344 C 166.527344 68.402344 165.382812 67.925781 164.539062 67.082031 C 163.695312 66.238281 163.222656 65.09375 163.222656 63.902344 L 163.222656 52.285156 C 163.222656 51.09375 163.695312 49.949219 164.539062 49.105469 C 165.382812 48.261719 166.527344 47.785156 167.722656 47.785156 Z M 167.722656 47.785156 " clip-rule="nonzero"/></clipPath><clipPath id="f3c5b0a6f3"><path d="M 0.222656 0.785156 L 48.78125 0.785156 L 48.78125 21.402344 L 0.222656 21.402344 Z M 0.222656 0.785156 " clip-rule="nonzero"/></clipPath><clipPath id="4a3d8ad407"><path d="M 4.722656 0.785156 L 44.277344 0.785156 C 45.46875 0.785156 46.617188 1.261719 47.460938 2.105469 C 48.304688 2.949219 48.777344 4.09375 48.777344 5.285156 L 48.777344 16.902344 C 48.777344 18.09375 48.304688 19.238281 47.460938 20.082031 C 46.617188 20.925781 45.46875 21.402344 44.277344 21.402344 L 4.722656 21.402344 C 3.527344 21.402344 2.382812 20.925781 1.539062 20.082031 C 0.695312 19.238281 0.222656 18.09375 0.222656 16.902344 L 0.222656 5.285156 C 0.222656 4.09375 0.695312 2.949219 1.539062 2.105469 C 2.382812 1.261719 3.527344 0.785156 4.722656 0.785156 Z M 4.722656 0.785156 " clip-rule="nonzero"/></clipPath><clipPath id="f992947f6a"><rect x="0" width="49" y="0" height="22"/></clipPath><clipPath id="aa008098b7"><path d="M 176.402344 69.492188 L 197.875 69.492188 L 197.875 74.9375 L 176.402344 74.9375 Z M 176.402344 69.492188 " clip-rule="nonzero"/></clipPath><clipPath id="d14220a594"><path d="M 179.125 69.492188 L 195.140625 69.492188 C 195.863281 69.492188 196.554688 69.777344 197.066406 70.289062 C 197.578125 70.800781 197.863281 71.492188 197.863281 72.214844 C 197.863281 72.9375 197.578125 73.628906 197.066406 74.140625 C 196.554688 74.652344 195.863281 74.9375 195.140625 74.9375 L 179.125 74.9375 C 178.402344 74.9375 177.710938 74.652344 177.199219 74.140625 C 176.6875 73.628906 176.402344 72.9375 176.402344 72.214844 C 176.402344 71.492188 176.6875 70.800781 177.199219 70.289062 C 177.710938 69.777344 178.402344 69.492188 179.125 69.492188 Z M 179.125 69.492188 " clip-rule="nonzero"/></clipPath><clipPath id="964f5e5f3b"><path d="M 0.402344 0.492188 L 21.875 0.492188 L 21.875 5.9375 L 0.402344 5.9375 Z M 0.402344 0.492188 " clip-rule="nonzero"/></clipPath><clipPath id="6504dfed1b"><path d="M 3.125 0.492188 L 19.140625 0.492188 C 19.863281 0.492188 20.554688 0.777344 21.066406 1.289062 C 21.578125 1.800781 21.863281 2.492188 21.863281 3.214844 C 21.863281 3.9375 21.578125 4.628906 21.066406 5.140625 C 20.554688 5.652344 19.863281 5.9375 19.140625 5.9375 L 3.125 5.9375 C 2.402344 5.9375 1.710938 5.652344 1.199219 5.140625 C 0.6875 4.628906 0.402344 3.9375 0.402344 3.214844 C 0.402344 2.492188 0.6875 1.800781 1.199219 1.289062 C 1.710938 0.777344 2.402344 0.492188 3.125 0.492188 Z M 3.125 0.492188 " clip-rule="nonzero"/></clipPath><clipPath id="6e95aa0a83"><rect x="0" width="22" y="0" height="6"/></clipPath><clipPath id="8ea9be8bf8"><path d="M 172.097656 76.027344 L 202.917969 76.027344 L 202.917969 80.808594 L 172.097656 80.808594 Z M 172.097656 76.027344 " clip-rule="nonzero"/></clipPath><clipPath id="c2b847ad26"><path d="M 174.488281 76.027344 L 200.511719 76.027344 C 201.832031 76.027344 202.902344 77.097656 202.902344 78.417969 C 202.902344 79.738281 201.832031 80.808594 200.511719 80.808594 L 174.488281 80.808594 C 173.167969 80.808594 172.097656 79.738281 172.097656 78.417969 C 172.097656 77.097656 173.167969 76.027344 174.488281 76.027344 Z M 174.488281 76.027344 " clip-rule="nonzero"/></clipPath><clipPath id="019191eb0a"><path d="M 0.0976562 0.0273438 L 30.917969 0.0273438 L 30.917969 4.808594 L 0.0976562 4.808594 Z M 0.0976562 0.0273438 " clip-rule="nonzero"/></clipPath><clipPath id="0386ffb0da"><path d="M 2.488281 0.0273438 L 28.511719 0.0273438 C 29.832031 0.0273438 30.902344 1.097656 30.902344 2.417969 C 30.902344 3.738281 29.832031 4.808594 28.511719 4.808594 L 2.488281 4.808594 C 1.167969 4.808594 0.0976562 3.738281 0.0976562 2.417969 C 0.0976562 1.097656 1.167969 0.0273438 2.488281 0.0273438 Z M 2.488281 0.0273438 " clip-rule="nonzero"/></clipPath><clipPath id="42fda32b98"><rect x="0" width="31" y="0" height="5"/></clipPath><clipPath id="b025ac6038"><path d="M 164.65625 128.09375 L 210 128.09375 L 210 182.09375 L 164.65625 182.09375 Z M 164.65625 128.09375 " clip-rule="nonzero"/></clipPath><clipPath id="4ef4fe3e73"><path d="M 42.589844 284.519531 L 341.839844 284.519531 L 341.839844 375 L 42.589844 375 Z M 42.589844 284.519531 " clip-rule="nonzero"/></clipPath><clipPath id="e558fdfbda"><path d="M 0.589844 0.519531 L 299.839844 0.519531 L 299.839844 91 L 0.589844 91 Z M 0.589844 0.519531 " clip-rule="nonzero"/></clipPath><clipPath id="6184e97e04"><path d="M 29.089844 2.019531 L 271.339844 2.019531 L 271.339844 91 L 29.089844 91 Z M 29.089844 2.019531 " clip-rule="nonzero"/></clipPath><linearGradient x1="-10.016" gradientTransform="matrix(0.749994, 0, 0, 0.747733, 36.602841, 36.182918)" y1="16.5" x2="312.98501" gradientUnits="userSpaceOnUse" y2="16.5" id="eac4e47e59"><stop stop-opacity="1" stop-color="rgb(100%, 39.99939%, 76.858521%)" offset="0"/><stop stop-opacity="1" stop-color="rgb(100%, 39.99939%, 76.858521%)" offset="0.125"/><stop stop-opacity="1" stop-color="rgb(100%, 39.99939%, 76.858521%)" offset="0.140625"/><stop stop-opacity="1" stop-color="rgb(100%, 40.02533%, 76.834106%)" offset="0.148438"/><stop stop-opacity="1" stop-color="rgb(100%, 40.313721%, 76.579285%)" offset="0.152344"/><stop stop-opacity="1" stop-color="rgb(100%, 40.574646%, 76.347351%)" offset="0.15625"/><stop stop-opacity="1" stop-color="rgb(100%, 40.835571%, 76.113892%)" offset="0.160156"/><stop stop-opacity="1" stop-color="rgb(100%, 41.096497%, 75.881958%)" offset="0.164062"/><stop stop-opacity="1" stop-color="rgb(100%, 41.355896%, 75.648499%)" offset="0.167969"/><stop stop-opacity="1" stop-color="rgb(100%, 41.616821%, 75.416565%)" offset="0.171875"/><stop stop-opacity="1" stop-color="rgb(100%, 41.877747%, 75.183105%)" offset="0.175781"/><stop stop-opacity="1" stop-color="rgb(100%, 42.138672%, 74.951172%)" offset="0.179688"/><stop stop-opacity="1" stop-color="rgb(100%, 42.399597%, 74.717712%)" offset="0.183594"/><stop stop-opacity="1" stop-color="rgb(100%, 42.660522%, 74.485779%)" offset="0.1875"/><stop stop-opacity="1" stop-color="rgb(100%, 42.921448%, 74.252319%)" offset="0.191406"/><stop stop-opacity="1" stop-color="rgb(100%, 43.182373%, 74.020386%)" offset="0.195312"/><stop stop-opacity="1" stop-color="rgb(100%, 43.443298%, 73.786926%)" offset="0.199219"/><stop stop-opacity="1" stop-color="rgb(100%, 43.704224%, 73.554993%)" offset="0.203125"/><stop stop-opacity="1" stop-color="rgb(100%, 43.965149%, 73.323059%)" offset="0.207031"/><stop stop-opacity="1" stop-color="rgb(100%, 44.226074%, 73.091125%)" offset="0.210937"/><stop stop-opacity="1" stop-color="rgb(100%, 44.487%, 72.857666%)" offset="0.214844"/><stop stop-opacity="1" stop-color="rgb(100%, 44.747925%, 72.625732%)" offset="0.21875"/><stop stop-opacity="1" stop-color="rgb(100%, 45.00885%, 72.392273%)" offset="0.222656"/><stop stop-opacity="1" stop-color="rgb(100%, 45.269775%, 72.160339%)" offset="0.226562"/><stop stop-opacity="1" stop-color="rgb(100%, 45.530701%, 71.92688%)" offset="0.230469"/><stop stop-opacity="1" stop-color="rgb(100%, 45.791626%, 71.694946%)" offset="0.234375"/><stop stop-opacity="1" stop-color="rgb(100%, 46.052551%, 71.461487%)" offset="0.238281"/><stop stop-opacity="1" stop-color="rgb(100%, 46.313477%, 71.229553%)" offset="0.242188"/><stop stop-opacity="1" stop-color="rgb(100%, 46.574402%, 70.996094%)" offset="0.246094"/><stop stop-opacity="1" stop-color="rgb(100%, 46.835327%, 70.76416%)" offset="0.25"/><stop stop-opacity="1" stop-color="rgb(100%, 47.094727%, 70.530701%)" offset="0.253906"/><stop stop-opacity="1" stop-color="rgb(100%, 47.355652%, 70.298767%)" offset="0.257812"/><stop stop-opacity="1" stop-color="rgb(100%, 47.616577%, 70.066833%)" offset="0.261719"/><stop stop-opacity="1" stop-color="rgb(100%, 47.877502%, 69.8349%)" offset="0.265625"/><stop stop-opacity="1" stop-color="rgb(100%, 48.138428%, 69.60144%)" offset="0.269531"/><stop stop-opacity="1" stop-color="rgb(100%, 48.399353%, 69.369507%)" offset="0.273438"/><stop stop-opacity="1" stop-color="rgb(100%, 48.660278%, 69.136047%)" offset="0.277344"/><stop stop-opacity="1" stop-color="rgb(100%, 48.921204%, 68.904114%)" offset="0.28125"/><stop stop-opacity="1" stop-color="rgb(100%, 49.182129%, 68.670654%)" offset="0.285156"/><stop stop-opacity="1" stop-color="rgb(100%, 49.443054%, 68.438721%)" offset="0.289062"/><stop stop-opacity="1" stop-color="rgb(100%, 49.703979%, 68.205261%)" offset="0.292969"/><stop stop-opacity="1" stop-color="rgb(100%, 49.964905%, 67.973328%)" offset="0.296875"/><stop stop-opacity="1" stop-color="rgb(100%, 50.22583%, 67.739868%)" offset="0.300781"/><stop stop-opacity="1" stop-color="rgb(100%, 50.486755%, 67.507935%)" offset="0.304688"/><stop stop-opacity="1" stop-color="rgb(100%, 50.747681%, 67.274475%)" offset="0.308594"/><stop stop-opacity="1" stop-color="rgb(100%, 51.008606%, 67.042542%)" offset="0.3125"/><stop stop-opacity="1" stop-color="rgb(100%, 51.269531%, 66.810608%)" offset="0.316406"/><stop stop-opacity="1" stop-color="rgb(100%, 51.530457%, 66.578674%)" offset="0.320312"/><stop stop-opacity="1" stop-color="rgb(100%, 51.791382%, 66.345215%)" offset="0.324219"/><stop stop-opacity="1" stop-color="rgb(100%, 52.052307%, 66.113281%)" offset="0.328125"/><stop stop-opacity="1" stop-color="rgb(100%, 52.313232%, 65.879822%)" offset="0.332031"/><stop stop-opacity="1" stop-color="rgb(100%, 52.574158%, 65.647888%)" offset="0.335938"/><stop stop-opacity="1" stop-color="rgb(100%, 52.833557%, 65.414429%)" offset="0.339844"/><stop stop-opacity="1" stop-color="rgb(100%, 53.094482%, 65.182495%)" offset="0.34375"/><stop stop-opacity="1" stop-color="rgb(100%, 53.355408%, 64.949036%)" offset="0.347656"/><stop stop-opacity="1" stop-color="rgb(100%, 53.616333%, 64.717102%)" offset="0.351562"/><stop stop-opacity="1" stop-color="rgb(100%, 53.877258%, 64.483643%)" offset="0.355469"/><stop stop-opacity="1" stop-color="rgb(100%, 54.138184%, 64.251709%)" offset="0.359375"/><stop stop-opacity="1" stop-color="rgb(100%, 54.399109%, 64.019775%)" offset="0.363281"/><stop stop-opacity="1" stop-color="rgb(100%, 54.660034%, 63.787842%)" offset="0.367188"/><stop stop-opacity="1" stop-color="rgb(100%, 54.920959%, 63.554382%)" offset="0.371094"/><stop stop-opacity="1" stop-color="rgb(100%, 55.181885%, 63.322449%)" offset="0.375"/><stop stop-opacity="1" stop-color="rgb(100%, 55.44281%, 63.088989%)" offset="0.378906"/><stop stop-opacity="1" stop-color="rgb(100%, 55.703735%, 62.857056%)" offset="0.382812"/><stop stop-opacity="1" stop-color="rgb(100%, 55.964661%, 62.623596%)" offset="0.386719"/><stop stop-opacity="1" stop-color="rgb(100%, 56.225586%, 62.391663%)" offset="0.390625"/><stop stop-opacity="1" stop-color="rgb(100%, 56.486511%, 62.158203%)" offset="0.394531"/><stop stop-opacity="1" stop-color="rgb(100%, 56.747437%, 61.92627%)" offset="0.398438"/><stop stop-opacity="1" stop-color="rgb(100%, 57.008362%, 61.69281%)" offset="0.402344"/><stop stop-opacity="1" stop-color="rgb(100%, 57.269287%, 61.460876%)" offset="0.40625"/><stop stop-opacity="1" stop-color="rgb(100%, 57.530212%, 61.227417%)" offset="0.410156"/><stop stop-opacity="1" stop-color="rgb(100%, 57.791138%, 60.995483%)" offset="0.414062"/><stop stop-opacity="1" stop-color="rgb(100%, 58.050537%, 60.76355%)" offset="0.417969"/><stop stop-opacity="1" stop-color="rgb(100%, 58.311462%, 60.531616%)" offset="0.421875"/><stop stop-opacity="1" stop-color="rgb(100%, 58.572388%, 60.298157%)" offset="0.425781"/><stop stop-opacity="1" stop-color="rgb(100%, 58.833313%, 60.066223%)" offset="0.429688"/><stop stop-opacity="1" stop-color="rgb(100%, 59.094238%, 59.832764%)" offset="0.433594"/><stop stop-opacity="1" stop-color="rgb(100%, 59.355164%, 59.60083%)" offset="0.4375"/><stop stop-opacity="1" stop-color="rgb(100%, 59.616089%, 59.367371%)" offset="0.441406"/><stop stop-opacity="1" stop-color="rgb(100%, 59.877014%, 59.135437%)" offset="0.445312"/><stop stop-opacity="1" stop-color="rgb(100%, 60.137939%, 58.901978%)" offset="0.449219"/><stop stop-opacity="1" stop-color="rgb(100%, 60.398865%, 58.670044%)" offset="0.453125"/><stop stop-opacity="1" stop-color="rgb(100%, 60.65979%, 58.436584%)" offset="0.457031"/><stop stop-opacity="1" stop-color="rgb(100%, 60.920715%, 58.204651%)" offset="0.460938"/><stop stop-opacity="1" stop-color="rgb(100%, 61.181641%, 57.971191%)" offset="0.464844"/><stop stop-opacity="1" stop-color="rgb(100%, 61.442566%, 57.739258%)" offset="0.46875"/><stop stop-opacity="1" stop-color="rgb(100%, 61.703491%, 57.507324%)" offset="0.472656"/><stop stop-opacity="1" stop-color="rgb(100%, 61.964417%, 57.275391%)" offset="0.476563"/><stop stop-opacity="1" stop-color="rgb(100%, 62.225342%, 57.041931%)" offset="0.480469"/><stop stop-opacity="1" stop-color="rgb(100%, 62.486267%, 56.809998%)" offset="0.484375"/><stop stop-opacity="1" stop-color="rgb(100%, 62.747192%, 56.576538%)" offset="0.488281"/><stop stop-opacity="1" stop-color="rgb(100%, 63.008118%, 56.344604%)" offset="0.492188"/><stop stop-opacity="1" stop-color="rgb(100%, 63.269043%, 56.111145%)" offset="0.496094"/><stop stop-opacity="1" stop-color="rgb(100%, 63.529968%, 55.879211%)" offset="0.5"/><stop stop-opacity="1" stop-color="rgb(100%, 63.789368%, 55.645752%)" offset="0.503906"/><stop stop-opacity="1" stop-color="rgb(100%, 64.050293%, 55.413818%)" offset="0.507812"/><stop stop-opacity="1" stop-color="rgb(100%, 64.311218%, 55.180359%)" offset="0.511719"/><stop stop-opacity="1" stop-color="rgb(100%, 64.572144%, 54.948425%)" offset="0.515625"/><stop stop-opacity="1" stop-color="rgb(100%, 64.833069%, 54.714966%)" offset="0.519531"/><stop stop-opacity="1" stop-color="rgb(100%, 65.093994%, 54.483032%)" offset="0.523438"/><stop stop-opacity="1" stop-color="rgb(100%, 65.354919%, 54.251099%)" offset="0.527344"/><stop stop-opacity="1" stop-color="rgb(100%, 65.615845%, 54.019165%)" offset="0.53125"/><stop stop-opacity="1" stop-color="rgb(100%, 65.87677%, 53.785706%)" offset="0.535156"/><stop stop-opacity="1" stop-color="rgb(100%, 66.137695%, 53.553772%)" offset="0.539062"/><stop stop-opacity="1" stop-color="rgb(100%, 66.398621%, 53.320312%)" offset="0.542969"/><stop stop-opacity="1" stop-color="rgb(100%, 66.659546%, 53.088379%)" offset="0.546875"/><stop stop-opacity="1" stop-color="rgb(100%, 66.920471%, 52.854919%)" offset="0.550781"/><stop stop-opacity="1" stop-color="rgb(100%, 67.181396%, 52.622986%)" offset="0.554688"/><stop stop-opacity="1" stop-color="rgb(100%, 67.442322%, 52.389526%)" offset="0.558594"/><stop stop-opacity="1" stop-color="rgb(100%, 67.703247%, 52.157593%)" offset="0.5625"/><stop stop-opacity="1" stop-color="rgb(100%, 67.964172%, 51.924133%)" offset="0.566406"/><stop stop-opacity="1" stop-color="rgb(100%, 68.225098%, 51.6922%)" offset="0.570312"/><stop stop-opacity="1" stop-color="rgb(100%, 68.486023%, 51.45874%)" offset="0.574219"/><stop stop-opacity="1" stop-color="rgb(100%, 68.746948%, 51.226807%)" offset="0.578125"/><stop stop-opacity="1" stop-color="rgb(100%, 69.006348%, 50.994873%)" offset="0.582031"/><stop stop-opacity="1" stop-color="rgb(100%, 69.267273%, 50.762939%)" offset="0.585938"/><stop stop-opacity="1" stop-color="rgb(100%, 69.528198%, 50.52948%)" offset="0.589844"/><stop stop-opacity="1" stop-color="rgb(100%, 69.789124%, 50.297546%)" offset="0.59375"/><stop stop-opacity="1" stop-color="rgb(100%, 70.050049%, 50.064087%)" offset="0.597656"/><stop stop-opacity="1" stop-color="rgb(100%, 70.310974%, 49.832153%)" offset="0.601562"/><stop stop-opacity="1" stop-color="rgb(100%, 70.571899%, 49.598694%)" offset="0.605469"/><stop stop-opacity="1" stop-color="rgb(100%, 70.832825%, 49.36676%)" offset="0.609375"/><stop stop-opacity="1" stop-color="rgb(100%, 71.09375%, 49.133301%)" offset="0.613281"/><stop stop-opacity="1" stop-color="rgb(100%, 71.354675%, 48.901367%)" offset="0.617188"/><stop stop-opacity="1" stop-color="rgb(100%, 71.615601%, 48.667908%)" offset="0.621094"/><stop stop-opacity="1" stop-color="rgb(100%, 71.876526%, 48.435974%)" offset="0.625"/><stop stop-opacity="1" stop-color="rgb(100%, 72.137451%, 48.204041%)" offset="0.628906"/><stop stop-opacity="1" stop-color="rgb(100%, 72.398376%, 47.972107%)" offset="0.632812"/><stop stop-opacity="1" stop-color="rgb(100%, 72.659302%, 47.738647%)" offset="0.636719"/><stop stop-opacity="1" stop-color="rgb(100%, 72.920227%, 47.506714%)" offset="0.640625"/><stop stop-opacity="1" stop-color="rgb(100%, 73.181152%, 47.273254%)" offset="0.644531"/><stop stop-opacity="1" stop-color="rgb(100%, 73.442078%, 47.041321%)" offset="0.648438"/><stop stop-opacity="1" stop-color="rgb(100%, 73.703003%, 46.807861%)" offset="0.652344"/><stop stop-opacity="1" stop-color="rgb(100%, 73.963928%, 46.575928%)" offset="0.65625"/><stop stop-opacity="1" stop-color="rgb(100%, 74.224854%, 46.342468%)" offset="0.660156"/><stop stop-opacity="1" stop-color="rgb(100%, 74.485779%, 46.110535%)" offset="0.664062"/><stop stop-opacity="1" stop-color="rgb(100%, 74.745178%, 45.877075%)" offset="0.667969"/><stop stop-opacity="1" stop-color="rgb(100%, 75.006104%, 45.645142%)" offset="0.671875"/><stop stop-opacity="1" stop-color="rgb(100%, 75.267029%, 45.411682%)" offset="0.675781"/><stop stop-opacity="1" stop-color="rgb(100%, 75.527954%, 45.179749%)" offset="0.679688"/><stop stop-opacity="1" stop-color="rgb(100%, 75.788879%, 44.947815%)" offset="0.683594"/><stop stop-opacity="1" stop-color="rgb(100%, 76.049805%, 44.715881%)" offset="0.6875"/><stop stop-opacity="1" stop-color="rgb(100%, 76.31073%, 44.482422%)" offset="0.691406"/><stop stop-opacity="1" stop-color="rgb(100%, 76.571655%, 44.250488%)" offset="0.695312"/><stop stop-opacity="1" stop-color="rgb(100%, 76.832581%, 44.017029%)" offset="0.699219"/><stop stop-opacity="1" stop-color="rgb(100%, 77.093506%, 43.785095%)" offset="0.703125"/><stop stop-opacity="1" stop-color="rgb(100%, 77.354431%, 43.551636%)" offset="0.707031"/><stop stop-opacity="1" stop-color="rgb(100%, 77.615356%, 43.319702%)" offset="0.710937"/><stop stop-opacity="1" stop-color="rgb(100%, 77.876282%, 43.086243%)" offset="0.714844"/><stop stop-opacity="1" stop-color="rgb(100%, 78.137207%, 42.854309%)" offset="0.71875"/><stop stop-opacity="1" stop-color="rgb(100%, 78.398132%, 42.62085%)" offset="0.722656"/><stop stop-opacity="1" stop-color="rgb(100%, 78.659058%, 42.388916%)" offset="0.726562"/><stop stop-opacity="1" stop-color="rgb(100%, 78.919983%, 42.155457%)" offset="0.730469"/><stop stop-opacity="1" stop-color="rgb(100%, 79.180908%, 41.923523%)" offset="0.734375"/><stop stop-opacity="1" stop-color="rgb(100%, 79.441833%, 41.691589%)" offset="0.738281"/><stop stop-opacity="1" stop-color="rgb(100%, 79.702759%, 41.459656%)" offset="0.742188"/><stop stop-opacity="1" stop-color="rgb(100%, 79.962158%, 41.226196%)" offset="0.746094"/><stop stop-opacity="1" stop-color="rgb(100%, 80.223083%, 40.994263%)" offset="0.75"/><stop stop-opacity="1" stop-color="rgb(100%, 80.484009%, 40.760803%)" offset="0.753906"/><stop stop-opacity="1" stop-color="rgb(100%, 80.744934%, 40.52887%)" offset="0.757812"/><stop stop-opacity="1" stop-color="rgb(100%, 81.005859%, 40.29541%)" offset="0.761719"/><stop stop-opacity="1" stop-color="rgb(100%, 81.266785%, 40.063477%)" offset="0.765625"/><stop stop-opacity="1" stop-color="rgb(100%, 81.52771%, 39.830017%)" offset="0.769531"/><stop stop-opacity="1" stop-color="rgb(100%, 81.788635%, 39.598083%)" offset="0.773438"/><stop stop-opacity="1" stop-color="rgb(100%, 82.049561%, 39.364624%)" offset="0.777344"/><stop stop-opacity="1" stop-color="rgb(100%, 82.310486%, 39.13269%)" offset="0.78125"/><stop stop-opacity="1" stop-color="rgb(100%, 82.571411%, 38.899231%)" offset="0.785156"/><stop stop-opacity="1" stop-color="rgb(100%, 82.832336%, 38.667297%)" offset="0.789062"/><stop stop-opacity="1" stop-color="rgb(100%, 83.093262%, 38.435364%)" offset="0.792969"/><stop stop-opacity="1" stop-color="rgb(100%, 83.354187%, 38.20343%)" offset="0.796875"/><stop stop-opacity="1" stop-color="rgb(100%, 83.615112%, 37.969971%)" offset="0.800781"/><stop stop-opacity="1" stop-color="rgb(100%, 83.876038%, 37.738037%)" offset="0.804688"/><stop stop-opacity="1" stop-color="rgb(100%, 84.136963%, 37.504578%)" offset="0.808594"/><stop stop-opacity="1" stop-color="rgb(100%, 84.397888%, 37.272644%)" offset="0.8125"/><stop stop-opacity="1" stop-color="rgb(100%, 84.658813%, 37.039185%)" offset="0.816406"/><stop stop-opacity="1" stop-color="rgb(100%, 84.919739%, 36.807251%)" offset="0.820312"/><stop stop-opacity="1" stop-color="rgb(100%, 85.180664%, 36.573792%)" offset="0.824219"/><stop stop-opacity="1" stop-color="rgb(100%, 85.441589%, 36.341858%)" offset="0.828125"/><stop stop-opacity="1" stop-color="rgb(100%, 85.700989%, 36.108398%)" offset="0.832031"/><stop stop-opacity="1" stop-color="rgb(100%, 85.961914%, 35.876465%)" offset="0.835938"/><stop stop-opacity="1" stop-color="rgb(100%, 86.222839%, 35.644531%)" offset="0.839844"/><stop stop-opacity="1" stop-color="rgb(100%, 86.483765%, 35.412598%)" offset="0.84375"/><stop stop-opacity="1" stop-color="rgb(100%, 86.74469%, 35.179138%)" offset="0.847656"/><stop stop-opacity="1" stop-color="rgb(100%, 87.005615%, 34.947205%)" offset="0.851562"/><stop stop-opacity="1" stop-color="rgb(100%, 87.031555%, 34.922791%)" offset="0.859375"/><stop stop-opacity="1" stop-color="rgb(100%, 87.059021%, 34.899902%)" offset="0.875"/><stop stop-opacity="1" stop-color="rgb(100%, 87.059021%, 34.899902%)" offset="1"/></linearGradient><clipPath id="08c088dde3"><rect x="0" width="300" y="0" height="91"/></clipPath><clipPath id="20d0d24159"><path d="M 0.589844 0.519531 L 299.839844 0.519531 L 299.839844 91 L 0.589844 91 Z M 0.589844 0.519531 " clip-rule="nonzero"/></clipPath><clipPath id="731a8303e4"><rect x="0" width="300" y="0" height="91"/></clipPath><clipPath id="934f2ca66d"><rect x="0" width="300" y="0" height="91"/></clipPath><mask id="da7dd0e4b3"><g filter="url(#ff0a709601)"><g><g clip-path="url(#934f2ca66d)"><g clip-path="url(#20d0d24159)"><g><g clip-path="url(#731a8303e4)"><g fill="#000000" fill-opacity="1"><g transform="translate(64.844214, 56.770505)"><g><path d="M 8.21875 -10.71875 C 9.34375 -10.71875 10.222656 -10.601562 10.859375 -10.375 C 11.503906 -10.144531 11.960938 -9.800781 12.234375 -9.34375 C 12.503906 -8.894531 12.640625 -8.34375 12.640625 -7.6875 L 12.640625 -7.171875 C 12.640625 -6.421875 12.503906 -5.800781 12.234375 -5.3125 C 11.960938 -4.832031 11.507812 -4.472656 10.875 -4.234375 C 10.238281 -3.992188 9.351562 -3.875 8.21875 -3.875 L 3.140625 -3.875 L 3.140625 0 L 2.21875 0 L 2.21875 -10.71875 Z M 11.671875 -7.171875 L 11.671875 -7.6875 C 11.671875 -8.457031 11.394531 -9.003906 10.84375 -9.328125 C 10.300781 -9.660156 9.425781 -9.828125 8.21875 -9.828125 L 3.140625 -9.828125 L 3.140625 -4.765625 L 8.21875 -4.765625 C 9.457031 -4.765625 10.34375 -4.941406 10.875 -5.296875 C 11.40625 -5.660156 11.671875 -6.285156 11.671875 -7.171875 Z M 11.671875 -7.171875 "/></g></g></g><g fill="#000000" fill-opacity="1"><g transform="translate(87.975617, 56.770505)"><g><path d="M 12.625 -9.90625 L 3.140625 -9.90625 L 3.140625 -5.625 L 11.953125 -5.625 L 11.953125 -4.8125 L 3.140625 -4.8125 L 3.140625 -0.828125 L 12.625 -0.828125 L 12.625 0 L 2.21875 0 L 2.21875 -10.71875 L 12.625 -10.71875 Z M 12.625 -9.90625 "/></g></g></g><g fill="#000000" fill-opacity="1"><g transform="translate(111.10702, 56.770505)"><g><path d="M 13.03125 -1.078125 C 13.03125 -0.878906 13.035156 -0.691406 13.046875 -0.515625 C 13.066406 -0.335938 13.09375 -0.164062 13.125 0 L 12.09375 0 C 12.070312 -0.164062 12.054688 -0.332031 12.046875 -0.5 C 12.035156 -0.675781 12.03125 -0.84375 12.03125 -1 L 12.03125 -2.78125 C 12.03125 -3.414062 11.816406 -3.875 11.390625 -4.15625 C 10.960938 -4.445312 10.21875 -4.59375 9.15625 -4.59375 L 3.1875 -4.59375 L 3.1875 0 L 2.21875 0 L 2.21875 -10.71875 L 9.15625 -10.71875 C 10.519531 -10.71875 11.503906 -10.476562 12.109375 -10 C 12.722656 -9.53125 13.03125 -8.851562 13.03125 -7.96875 L 13.03125 -7.546875 C 13.03125 -6.921875 12.910156 -6.40625 12.671875 -6 C 12.441406 -5.59375 12.070312 -5.28125 11.5625 -5.0625 C 12.070312 -4.851562 12.441406 -4.5625 12.671875 -4.1875 C 12.910156 -3.8125 13.03125 -3.34375 13.03125 -2.78125 Z M 3.1875 -5.515625 L 9.15625 -5.515625 C 10.21875 -5.515625 10.96875 -5.671875 11.40625 -5.984375 C 11.84375 -6.296875 12.0625 -6.816406 12.0625 -7.546875 L 12.0625 -7.96875 C 12.0625 -8.601562 11.84375 -9.070312 11.40625 -9.375 C 10.96875 -9.675781 10.21875 -9.828125 9.15625 -9.828125 L 3.1875 -9.828125 Z M 3.1875 -5.515625 "/></g></g></g><g fill="#000000" fill-opacity="1"><g transform="translate(135.257073, 56.770505)"><g><path d="M 12.625 -9.90625 L 3.140625 -9.90625 L 3.140625 -5.609375 L 11.1875 -5.609375 L 11.1875 -4.796875 L 3.140625 -4.796875 L 3.140625 0 L 2.21875 0 L 2.21875 -10.71875 L 12.625 -10.71875 Z M 12.625 -9.90625 "/></g></g></g><g fill="#000000" fill-opacity="1"><g transform="translate(157.620029, 56.770505)"><g><path d="M 8.171875 0.171875 C 6.597656 0.171875 5.320312 -0.03125 4.34375 -0.4375 C 3.363281 -0.84375 2.648438 -1.429688 2.203125 -2.203125 C 1.753906 -2.972656 1.53125 -3.894531 1.53125 -4.96875 L 1.53125 -10.71875 L 2.53125 -10.71875 L 2.53125 -4.96875 C 2.53125 -3.570312 2.988281 -2.519531 3.90625 -1.8125 C 4.832031 -1.101562 6.253906 -0.75 8.171875 -0.75 C 10.085938 -0.75 11.503906 -1.101562 12.421875 -1.8125 C 13.335938 -2.519531 13.796875 -3.570312 13.796875 -4.96875 L 13.796875 -10.71875 L 14.796875 -10.71875 L 14.796875 -5.046875 C 14.796875 -3.972656 14.566406 -3.046875 14.109375 -2.265625 C 13.660156 -1.484375 12.953125 -0.878906 11.984375 -0.453125 C 11.015625 -0.0351562 9.742188 0.171875 8.171875 0.171875 Z M 8.171875 0.171875 "/></g></g></g><g fill="#000000" fill-opacity="1"><g transform="translate(183.396344, 56.770505)"><g><path d="M 17.390625 -10.71875 L 17.390625 0 L 16.46875 0 L 16.46875 -9.46875 L 10.34375 -0.015625 L 10.34375 0 L 9.265625 0 L 9.28125 -0.015625 L 3.140625 -9.46875 L 3.140625 0 L 2.21875 0 L 2.21875 -10.71875 L 3.421875 -10.71875 L 9.8125 -0.84375 L 16.1875 -10.71875 Z M 17.390625 -10.71875 "/></g></g></g><g fill="#000000" fill-opacity="1"><g transform="translate(212.425186, 56.770505)"><g><path d="M 12.625 -9.90625 L 3.140625 -9.90625 L 3.140625 -5.625 L 11.953125 -5.625 L 11.953125 -4.8125 L 3.140625 -4.8125 L 3.140625 -0.828125 L 12.625 -0.828125 L 12.625 0 L 2.21875 0 L 2.21875 -10.71875 L 12.625 -10.71875 Z M 12.625 -9.90625 "/></g></g></g></g></g></g></g></g></g></mask><clipPath id="814e37808d"><path d="M 29.089844 2.019531 L 271.339844 2.019531 L 271.339844 91 L 29.089844 91 Z M 29.089844 2.019531 " clip-rule="nonzero"/></clipPath><clipPath id="1f120ce2f1"><rect x="0" width="300" y="0" height="91"/></clipPath><clipPath id="4a09f3dc80"><rect x="0" width="300" y="0" height="91"/></clipPath></defs><g clip-path="url(#54465abbcb)"><g clip-path="url(#c45d5ca400)"><path stroke-linecap="butt" transform="matrix(0.75, 0, 0, 0.75, 124.453532, 80.808775)" fill="none" stroke-linejoin="miter" d="M 59.994249 -0.000241258 L 108.11404 -0.000241258 C 124.025499 -0.000241258 139.285915 6.322675 150.535915 17.572675 C 161.785915 28.822675 168.108832 44.083092 168.108832 59.994551 L 168.108832 138.145592 C 168.108832 154.057051 161.785915 169.317467 150.535915 180.567467 C 139.285915 191.817467 124.025499 198.140384 108.11404 198.140384 L 59.994249 198.140384 C 44.08279 198.140384 28.822374 191.817467 17.572374 180.567467 C 6.322374 169.317467 -0.000543103 154.057051 -0.000543103 138.145592 L -0.000543103 59.994551 C -0.000543103 44.083092 6.322374 28.822675 17.572374 17.572675 C 28.822374 6.322675 44.08279 -0.000241258 59.994249 -0.000241258 Z M 59.994249 -0.000241258 " stroke="#ff914d" stroke-width="6" stroke-opacity="1" stroke-miterlimit="4"/></g></g><g clip-path="url(#6fe02c2199)"><g clip-path="url(#7922bb246d)"><g transform="matrix(1, 0, 0, 1, 146, 103)"><g clip-path="url(#d2eee2dc24)"><g clip-path="url(#e10a709d5c)"><g clip-path="url(#633caa09f5)"><path fill="#ff751f" d="M 0.3125 0.460938 L 82.6875 0.460938 L 82.6875 103.753906 L 0.3125 103.753906 Z M 0.3125 0.460938 " fill-opacity="1" fill-rule="nonzero"/></g></g></g></g></g></g><g clip-path="url(#a9c1292f7c)"><g clip-path="url(#982c0303c0)"><g transform="matrix(1, 0, 0, 1, 163, 47)"><g clip-path="url(#f992947f6a)"><g clip-path="url(#f3c5b0a6f3)"><g clip-path="url(#4a3d8ad407)"><path fill="#000000" d="M 0.222656 0.785156 L 48.78125 0.785156 L 48.78125 21.402344 L 0.222656 21.402344 Z M 0.222656 0.785156 " fill-opacity="1" fill-rule="nonzero"/></g></g></g></g></g></g><g clip-path="url(#aa008098b7)"><g clip-path="url(#d14220a594)"><g transform="matrix(1, 0, 0, 1, 176, 69)"><g clip-path="url(#6e95aa0a83)"><g clip-path="url(#964f5e5f3b)"><g clip-path="url(#6504dfed1b)"><path fill="#000000" d="M 0.402344 0.492188 L 21.851562 0.492188 L 21.851562 5.9375 L 0.402344 5.9375 Z M 0.402344 0.492188 " fill-opacity="1" fill-rule="nonzero"/></g></g></g></g></g></g><g clip-path="url(#8ea9be8bf8)"><g clip-path="url(#c2b847ad26)"><g transform="matrix(1, 0, 0, 1, 172, 76)"><g clip-path="url(#42fda32b98)"><g clip-path="url(#019191eb0a)"><g clip-path="url(#0386ffb0da)"><path fill="#000000" d="M 0.0976562 0.0273438 L 30.902344 0.0273438 L 30.902344 4.808594 L 0.0976562 4.808594 Z M 0.0976562 0.0273438 " fill-opacity="1" fill-rule="nonzero"/></g></g></g></g></g></g><g clip-path="url(#b025ac6038)"><path fill="#000000" d="M 197.824219 158.125 C 194.398438 158.113281 190.976562 158.109375 187.550781 158.109375 L 187.550781 158.113281 C 185.269531 158.117188 182.984375 158.117188 180.699219 158.117188 C 180.394531 158.117188 180.085938 158.152344 179.792969 158.167969 L 179.792969 167.085938 C 180.257812 167.085938 180.667969 167.085938 181.082031 167.085938 C 183.238281 167.085938 185.394531 167.085938 187.550781 167.085938 C 190.847656 167.085938 194.140625 167.089844 197.4375 167.09375 C 199.421875 167.097656 200.71875 168.308594 200.722656 170.089844 C 200.726562 171.882812 199.429688 173.105469 197.460938 173.105469 C 194.15625 173.109375 190.855469 173.109375 187.550781 173.109375 L 187.550781 173.113281 C 183.410156 173.113281 179.265625 173.109375 175.125 173.109375 C 174.023438 173.109375 173.765625 172.84375 173.765625 171.742188 C 173.761719 160.640625 173.757812 149.539062 173.761719 138.441406 C 173.761719 137.335938 174.003906 137.101562 175.140625 137.09375 C 177.136719 137.085938 179.128906 137.09375 181.121094 137.09375 C 183.265625 137.09375 185.410156 137.09375 187.554688 137.097656 C 187.609375 137.097656 187.664062 137.097656 187.71875 137.097656 C 187.886719 137.097656 188.054688 137.097656 188.226562 137.097656 C 191.277344 137.097656 194.328125 137.09375 197.382812 137.089844 C 198.359375 137.089844 199.234375 137.300781 199.917969 138.03125 C 200.824219 139 200.996094 140.15625 200.472656 141.332031 C 199.921875 142.558594 198.875 143.109375 197.523438 143.109375 C 194.425781 143.109375 191.324219 143.109375 188.226562 143.109375 C 185.808594 143.109375 183.394531 143.109375 180.976562 143.109375 L 179.792969 143.109375 L 179.792969 152.042969 C 180.097656 152.066406 180.351562 152.101562 180.605469 152.101562 C 182.921875 152.101562 185.238281 152.105469 187.554688 152.109375 C 190.949219 152.109375 194.339844 152.101562 197.730469 152.074219 C 199.023438 152.066406 200.363281 151.832031 201.597656 151.4375 C 207.160156 149.664062 210.375 144.175781 209.71875 138.902344 C 208.9375 132.613281 204.121094 128.160156 198.121094 128.132812 C 194.824219 128.117188 191.523438 128.109375 188.226562 128.105469 L 188.226562 128.09375 C 180.828125 128.09375 173.433594 128.105469 166.039062 128.105469 C 164.984375 128.105469 164.6875 128.417969 164.6875 129.5 C 164.6875 146.566406 164.6875 163.632812 164.6875 180.699219 C 164.6875 181.808594 164.949219 182.082031 166.039062 182.082031 C 173.433594 182.085938 180.828125 182.097656 188.21875 182.097656 L 188.21875 182.09375 C 191.519531 182.089844 194.820312 182.082031 198.117188 182.066406 C 204.519531 182.035156 209.757812 176.640625 209.792969 170.246094 C 209.835938 163.542969 204.542969 158.15625 197.824219 158.125 Z M 197.824219 158.125 " fill-opacity="1" fill-rule="nonzero"/></g><g fill="#ffbd59" fill-opacity="1"><g transform="translate(55.980858, 298.560244)"><g><path d="M 42.03125 -30.6875 L 24.59375 -15.34375 L 41.671875 0 L 34.015625 0 L 18.96875 -12.890625 L 11.5625 -12.890625 L 11.5625 0 L 6.34375 0 L 6.34375 -30.6875 L 11.5625 -30.6875 L 11.5625 -18 L 19.84375 -18 L 34.625 -30.6875 Z M 42.03125 -30.6875 "/></g></g></g><g fill="#ffbd59" fill-opacity="1"><g transform="translate(100.371114, 298.560244)"><g><path d="M 33.859375 0 L 30.84375 -5.46875 L 9.25 -5.46875 L 6.234375 0 L 0.25 0 L 17.078125 -30.53125 L 16.984375 -30.6875 L 23.109375 -30.6875 L 23.0625 -30.53125 L 39.84375 0 Z M 12.0625 -10.59375 L 28.03125 -10.59375 L 20.046875 -25.109375 Z M 12.0625 -10.59375 "/></g></g></g><g fill="#ffbd59" fill-opacity="1"><g transform="translate(142.153204, 298.560244)"><g><path d="M 52.46875 -30.6875 L 52.46875 0 L 47.25 0 L 47.25 -24.296875 L 32.375 -0.109375 L 32.421875 0 L 26.140625 0 L 26.234375 -0.109375 L 11.5625 -24.1875 L 11.5625 0 L 6.34375 0 L 6.34375 -30.6875 L 13.75 -30.6875 L 29.296875 -5.109375 L 45.0625 -30.6875 Z M 52.46875 -30.6875 "/></g></g></g><g fill="#ffbd59" fill-opacity="1"><g transform="translate(202.652758, 298.560244)"><g><path d="M 35.84375 -20.765625 C 35.84375 -22.085938 35.289062 -23.132812 34.1875 -23.90625 C 33.082031 -24.675781 31.566406 -25.222656 29.640625 -25.546875 C 27.710938 -25.867188 25.535156 -26.03125 23.109375 -26.03125 C 20.691406 -26.03125 18.453125 -25.914062 16.390625 -25.6875 C 14.328125 -25.46875 12.664062 -25.101562 11.40625 -24.59375 C 10.144531 -24.082031 9.515625 -23.421875 9.515625 -22.609375 L 9.515625 -22.140625 C 9.515625 -21.835938 9.585938 -21.515625 9.734375 -21.171875 C 9.890625 -20.828125 10.351562 -20.476562 11.125 -20.125 C 11.894531 -19.769531 13.15625 -19.425781 14.90625 -19.09375 C 16.664062 -18.769531 19.128906 -18.457031 22.296875 -18.15625 C 26.179688 -17.8125 29.492188 -17.382812 32.234375 -16.875 C 34.984375 -16.363281 37.09375 -15.523438 38.5625 -14.359375 C 40.03125 -13.203125 40.765625 -11.46875 40.765625 -9.15625 L 40.765625 -8.640625 C 40.765625 -5.265625 39.242188 -2.894531 36.203125 -1.53125 C 33.171875 -0.164062 28.453125 0.515625 22.046875 0.515625 C 16.046875 0.515625 11.550781 -0.476562 8.5625 -2.46875 C 5.582031 -4.46875 4.09375 -7.175781 4.09375 -10.59375 L 9.3125 -10.59375 C 9.3125 -8.75 10.347656 -7.289062 12.421875 -6.21875 C 14.503906 -5.144531 17.710938 -4.609375 22.046875 -4.609375 C 23.472656 -4.609375 24.960938 -4.640625 26.515625 -4.703125 C 28.066406 -4.773438 29.515625 -4.9375 30.859375 -5.1875 C 32.210938 -5.445312 33.304688 -5.835938 34.140625 -6.359375 C 34.972656 -6.890625 35.390625 -7.597656 35.390625 -8.484375 L 35.390625 -9.109375 C 35.390625 -9.304688 35.300781 -9.554688 35.125 -9.859375 C 34.957031 -10.171875 34.484375 -10.515625 33.703125 -10.890625 C 32.921875 -11.265625 31.609375 -11.628906 29.765625 -11.984375 C 27.921875 -12.347656 25.328125 -12.679688 21.984375 -12.984375 C 17.898438 -13.429688 14.546875 -13.910156 11.921875 -14.421875 C 9.296875 -14.929688 7.34375 -15.765625 6.0625 -16.921875 C 4.78125 -18.085938 4.140625 -19.8125 4.140625 -22.09375 L 4.140625 -22.5 C 4.140625 -25.332031 5.671875 -27.476562 8.734375 -28.9375 C 11.804688 -30.40625 16.597656 -31.140625 23.109375 -31.140625 C 26.796875 -31.140625 29.976562 -30.804688 32.65625 -30.140625 C 35.332031 -29.484375 37.398438 -28.394531 38.859375 -26.875 C 40.328125 -25.351562 41.0625 -23.316406 41.0625 -20.765625 Z M 35.84375 -20.765625 "/></g></g></g><g fill="#ffbd59" fill-opacity="1"><g transform="translate(249.49776, 298.560244)"><g><path d="M 38.359375 -30.6875 L 43.578125 -30.6875 L 43.578125 0 L 38.359375 0 L 38.359375 -13.140625 L 11.5625 -13.140625 L 11.5625 0 L 6.34375 0 L 6.34375 -30.6875 L 11.5625 -30.6875 L 11.5625 -17.546875 L 38.359375 -17.546875 Z M 38.359375 -30.6875 "/></g></g></g><g fill="#ffbd59" fill-opacity="1"><g transform="translate(301.098846, 298.560244)"><g><path d="M 6.34375 0 L 6.34375 -30.6875 L 11.5625 -30.6875 L 11.5625 0 Z M 6.34375 0 "/></g></g></g><g clip-path="url(#4ef4fe3e73)"><g transform="matrix(1, 0, 0, 1, 42, 284)"><g clip-path="url(#4a09f3dc80)"><g clip-path="url(#e558fdfbda)"><g mask="url(#da7dd0e4b3)"><g><g clip-path="url(#1f120ce2f1)"><g clip-path="url(#814e37808d)"><path fill="url(#eac4e47e59)" d="M 29.089844 2.019531 L 29.089844 91 L 271.339844 91 L 271.339844 2.019531 Z M 29.089844 2.019531 " fill-rule="nonzero"/></g></g></g></g></g></g></g></g></svg>